<svg xmlns="http://www.w3.org/2000/svg" width="873" height="929" viewBox="0 0 873 929" fill="none" transform="matrix(1, 0, 0, 1, 0, 0)">
<path fill-rule="evenodd" clip-rule="evenodd" d="M384.645 550.903L384.624 550.893C364.649 541.932 348.643 529.473 336.858 513.433C324.963 497.24 318.935 478.586 318.708 457.721L318.632 450.645H411.29L411.591 457.331C411.844 462.968 413.619 467.834 416.931 472.137C420.31 476.422 425.032 479.957 431.382 482.617C437.675 485.254 445.021 486.653 453.547 486.653C462.01 486.653 469.155 485.171 475.147 482.411C481.334 479.506 485.902 475.692 489.123 471.055C492.264 466.43 493.842 461.128 493.755 454.9L493.754 454.803L493.755 454.705C493.84 448.63 492.141 443.416 488.666 438.796C485.131 434.098 479.971 430.222 472.801 427.344L472.786 427.338L472.771 427.332C465.774 424.487 457.206 422.952 446.894 422.952H408.37V353.361H446.894C455.743 353.361 463.212 351.907 469.456 349.201L469.473 349.194L469.49 349.186C475.877 346.457 480.549 342.781 483.821 338.275C487.018 333.768 488.613 328.616 488.527 322.557L488.526 322.457L488.527 322.357C488.615 316.331 487.186 311.367 484.446 307.188L484.403 307.123L484.362 307.057C481.627 302.678 477.758 299.225 472.528 296.705L472.507 296.695L472.486 296.685C467.378 294.181 461.232 292.819 453.864 292.819C446.047 292.819 439.145 294.192 433.051 296.819C427.1 299.429 422.578 303.01 419.259 307.506C416.043 311.863 414.302 316.937 414.129 322.975L413.935 329.774H325.126L325.203 322.698C325.429 302.093 331.218 283.719 342.678 267.834C354.019 252.009 369.381 239.741 388.535 230.97L388.542 230.967L388.549 230.964C407.866 222.17 429.686 217.858 453.864 217.858C477.911 217.858 499.377 222.055 518.094 230.659C536.699 239.211 551.458 251.011 562.083 266.157C572.759 281.269 578.086 298.42 578.09 317.385C578.201 337.31 571.597 354.177 558.099 367.403C550.59 374.821 541.882 380.56 532.05 384.66C547.045 389.195 559.457 396.295 568.993 406.191C583.248 420.873 589.704 437.962 590.129 460.841C590.543 483.116 583.905 499.402 572.063 514.953M567 510C566.5 511 540.199 536.505 520.556 544.822C501.018 553.034 478.577 557.141 453.23 557.141C428.518 557.141 406.604 552.929 387.489 544.506C368.48 535.978 353.483 524.239 342.5 509.288C332.851 496.154 327.359 481.273 326.024 464.645C325.839 462.346 325.734 460.012 325.708 457.645H404.598C404.914 464.7 407.185 470.964 411.409 476.439C415.634 481.809 421.389 486.02 428.676 489.073C435.963 492.127 444.254 493.653 453.547 493.653C462.841 493.653 471.026 492.021 478.101 488.757C485.283 485.388 490.88 480.808 494.893 475.018C498.906 469.122 500.86 462.383 500.754 454.803C500.86 447.222 498.695 440.484 494.259 434.588C489.824 428.692 483.54 424.112 475.408 420.848C467.382 417.584 457.877 415.952 446.894 415.952H415.37V360.361H446.894C456.504 360.361 464.953 358.782 472.24 355.623C479.633 352.465 485.388 348.043 489.507 342.357C493.626 336.567 495.632 329.934 495.527 322.458C495.632 315.194 493.89 308.824 490.299 303.349C486.814 297.769 481.903 293.452 475.567 290.399C469.336 287.346 462.102 285.819 453.864 285.819C445.204 285.819 437.336 287.346 430.261 290.399C423.29 293.452 417.746 297.769 413.627 303.349C409.508 308.929 407.343 315.404 407.132 322.774H332.203C332.229 320.406 332.333 318.073 332.515 315.774C333.816 299.375 339.098 284.757 348.361 271.921C358.922 257.181 373.285 245.652 391.449 237.335C409.72 229.017 430.525 224.858 453.864 224.858C477.098 224.858 497.533 228.912 515.17 237.019C532.807 245.126 546.536 256.181 556.357 270.184C566.179 284.082 571.09 299.822 571.09 317.405C571.195 335.619 565.228 350.622 553.189 362.414C544.012 371.483 532.804 377.874 519.567 381.587C515.683 382.677 511.625 383.536 507.392 384.164C507.292 384.179 507.191 384.194 507.091 384.209V386.735C507.216 386.75 507.341 386.765 507.465 386.78C511.76 387.293 513.568 387.501 517.5 388.318C527.601 390.415 553.189 396 566.689 415.043C585.799 442 580.706 456.666 581.5 459.5M572.063 514.953C560.22 530.505 543.85 542.56 523.285 551.268L523.268 551.275C502.721 559.912 479.329 564.141 453.23 564.141C427.722 564.141 404.819 559.792 384.666 550.912L384.645 550.903" fill="#ffffff"/>
<path fill-rule="evenodd" clip-rule="evenodd" d="M550.146 527.545L546.176 529.556L546.12 530.615C544.157 532.039 542.125 533.415 540.024 534.742L540.105 533.213L508.993 549.053C497.867 552.603 485.901 554.964 473.094 556.137L428.799 527.353L427.322 555.287C425.358 555.017 423.414 554.716 421.492 554.383L422.938 527.043L388.384 544.635C388.183 544.547 387.982 544.459 387.781 544.371C385.705 543.44 383.677 542.47 381.697 541.462L420.293 521.813L371.976 490.416L369.666 534.481C367.719 533.197 365.83 531.867 363.998 530.49L366.115 490.104L339.165 503.824C337.977 501.932 336.868 500.007 335.841 498.047L362.612 484.486L326.088 460.797C326.041 459.708 326.012 458.613 326 457.51H331.793L365.817 479.578L366.974 457.51H372.852L371.677 479.895L405.513 462.749C405.944 464.937 406.587 467.039 407.442 469.056L375.163 485.496L423.447 516.872L425.035 487.1C426.292 487.753 427.603 488.366 428.968 488.938C429.564 489.187 430.167 489.427 430.776 489.656L429.306 517.219L480.66 491.024L477.548 489.002C477.831 488.878 478.113 488.751 478.393 488.622C480.189 487.78 481.885 486.861 483.483 485.868L483.845 486.103L483.871 485.624C486.113 484.197 488.155 482.619 489.999 480.889L489.707 486.413L541.03 460.284L492.747 428.909L492.581 432.055C489.746 428.891 486.305 426.158 482.259 423.856L483.472 423.242L435.117 391.848L433.86 415.817H427.982L429.256 391.529L415.662 398.418V391.847L426.588 386.31L415.662 379.216V372.227L429.788 381.398L430.898 360.226H436.776L435.649 381.717L486.668 355.863L479.5 351.035C481.369 349.804 483.091 348.461 484.661 347L490.128 350.717L493.148 293.604L485.897 297.295C484.409 295.804 482.771 294.445 480.984 293.219L490.492 288.379L442.215 257.007L440.626 287.06C438.584 287.499 436.596 288.043 434.662 288.691L436.354 256.697L385.326 282.676L414.935 301.899C414.587 302.329 414.249 302.767 413.919 303.213C413.017 304.436 412.208 305.701 411.493 307.01L381.706 287.654L379.871 322.639H373.993L375.863 287.005L333.66 308.391C334.05 305.91 334.537 303.473 335.121 301.08L372.906 281.932L351.494 268.013C352.772 266.399 354.099 264.826 355.475 263.294L376.532 276.965L378.239 244.403C380.203 243.188 382.224 242.021 384.3 240.901L382.377 277.601L433.709 251.467L404.211 232.299C406.619 231.494 409.065 230.754 411.55 230.077L436.863 246.526L437.988 225.424C439.936 225.25 441.902 225.109 443.889 225L442.723 246.874L481.944 226.867C485.112 227.383 488.216 227.993 491.256 228.696L445.401 252.087L493.684 283.462L496.509 230.022C498.466 230.558 500.395 231.135 502.295 231.752L499.546 283.77L547.731 259.238C549.141 260.7 550.496 262.202 551.797 263.745L502.202 288.994L550.481 320.367L553.373 265.668C554.509 267.094 555.602 268.555 556.649 270.048C557.488 271.236 558.291 272.436 559.059 273.65L556.608 320.372L571.281 312.937C571.348 314.368 571.382 315.812 571.382 317.269C571.386 318.006 571.38 318.738 571.365 319.465L559.273 325.592L569.902 332.493C569.47 334.53 568.943 336.518 568.322 338.456L556.078 330.506L554.463 361.296C554.14 361.626 553.813 361.954 553.481 362.279C551.736 364.003 549.918 365.631 548.026 367.161L549.947 330.508L498.975 356.458L531.235 377.382C528.917 378.408 526.524 379.335 524.055 380.162L495.525 361.62L492.534 418.65L539.899 394.657C544.627 396.641 548.975 398.943 552.943 401.561L550.105 455.236L580.8 439.682C581.326 441.605 581.773 443.569 582.141 445.573L552.204 460.744L581.364 479.657C580.909 481.671 580.379 483.656 579.773 485.613L549.535 466L546.532 522.805L564.148 513.882C560.023 518.818 555.356 523.373 550.146 527.545ZM546.651 398.178L495.942 423.994L543.68 455.015L546.651 398.178ZM543.115 465.799L492.36 491.639L540.129 522.732L543.115 465.799ZM495.969 351.411L499.009 293.911L547.289 325.284L495.969 351.411ZM537.454 527.986L486.13 554.115L489.172 496.558L537.454 527.986ZM480.268 553.808L431.985 522.433L483.311 496.252L480.268 553.808ZM438.316 386.935L486.673 418.331L489.685 360.905L438.316 386.935Z" fill="#ffffff"/>
<path d="M332.631 318.322C332.556 319.747 332.511 321.187 332.495 322.639H339.28L332.631 318.322Z" fill="#ffffff"/>
<path fill-rule="evenodd" clip-rule="evenodd" d="M253.358 679.112L204.939 796.439L437.214 928.953L669.485 796.439L621.066 679.112H253.358ZM245.001 717.796L258.063 686.144H263.102L245.001 717.796ZM224.001 768.682L213.801 793.399L263.026 821.482L264.735 821.478L228.966 760.001L224.001 768.682ZM277.765 829.891L329.016 859.129L346.741 828.303L276.947 828.484L277.765 829.891ZM336.076 863.157L387.879 892.711L353.168 833.27L336.076 863.157ZM401.571 900.523L437.214 920.857L471.093 901.528L471.808 900.288L401.571 900.523ZM485.675 893.209L537.885 863.423L519.362 831.703L483.992 893.215L485.675 893.209ZM544.686 859.543L597.041 829.673L597.706 828.511L526.705 828.639L544.686 859.543ZM611.459 821.448L660.623 793.399L650.857 769.735L645.057 759.755L609.838 821.452L611.459 821.448ZM631.091 721.839L616.361 686.144H610.324L631.091 721.839ZM527.062 686.144H596.033L561.844 745.927L527.062 686.144ZM443.76 686.144H513.019L478.706 746.145L443.76 686.144ZM360.659 686.144H428.497L394.789 744.744L360.659 686.144ZM277.393 686.144H346.116L312.05 745.712L277.393 686.144ZM305.972 749.248L270.239 687.831L235.01 749.432L305.972 749.248ZM638.903 749.248L603.169 687.831L567.941 749.432L638.903 749.248ZM389.157 749.046L353.377 687.613L318.139 749.23L389.157 749.046ZM306.012 756.28L235.044 756.464L270.813 817.942L306.012 756.28ZM358.667 828.742L394.449 890.017L429.819 828.505L358.667 828.742ZM435.935 831.977L400.562 893.494L471.784 893.256L435.935 831.977ZM526.665 821.607L597.666 821.478L561.897 760.001L526.665 821.607ZM567.975 756.464L603.744 817.942L638.942 756.28L567.975 756.464ZM555.766 749.463L520.032 688.046L484.804 749.647L555.766 749.463ZM388.269 756.081L318.23 756.262L353.385 816.749L388.269 756.081ZM347.878 821.268L312.126 759.755L276.907 821.452L347.878 821.268ZM359.78 821.706L429.795 821.473L394.482 761.001L359.78 821.706ZM400.102 756.679L435.892 817.969L471.29 756.409L400.102 756.679ZM477.405 759.882L442.033 821.397L513.222 821.192L477.405 759.882ZM520.571 818.097L555.8 756.496L484.838 756.679L520.571 818.097ZM471.269 749.377L435.832 688.693L400.976 749.643L471.269 749.377ZM513.25 828.224L442.006 828.429L477.876 889.743L513.25 828.224Z" fill="#ffffff"/>
<path fill-rule="evenodd" clip-rule="evenodd" d="M540.476 0L841.82 649.476L873 153.97L540.476 0ZM562.093 34.9365L550.552 10.0686L594.586 30.458L593.247 55.2862L562.093 34.9365ZM565.993 43.3399L576.718 66.4511L590.578 59.3987L565.993 43.3399ZM578.784 70.9015L590.986 97.1947L592.789 63.7749L578.784 70.9015ZM595.851 107.678L606.585 130.808L658.693 104.293L598.167 64.7576L595.851 107.678ZM608.651 135.259L618.091 155.601L656.999 181.058L660.904 108.669L608.651 135.259ZM621.996 164.015L636.117 194.442L654.333 185.173L621.996 164.015ZM638.182 198.893L654.177 233.357L656.541 189.551L638.182 198.893ZM658.573 242.831L665.622 258.019L721.96 229.35L661.434 189.815L658.573 242.831ZM667.961 263.058L675.246 278.756L719.077 307.386L723.014 235.031L667.961 263.058ZM679.146 287.159L695.422 322.232L716.454 311.529L679.146 287.159ZM697.487 326.682L715.927 366.416L718.652 315.912L697.487 326.682ZM720.324 375.889L724.927 385.808L784.072 355.711L723.546 316.176L720.324 375.889ZM726.992 390.258L729.422 395.494L782.502 430.165L786.283 360.087L726.992 390.258ZM734.868 407.229L753.805 448.034L778.275 435.582L734.868 407.229ZM755.87 452.484L779.085 502.507L782.486 438.94L755.87 452.484ZM786.554 518.601L785.67 516.696L846.99 485.493L842.554 555.18L786.554 518.601ZM790.454 527.004L813.11 575.822L842.182 561.028L842.197 560.803L790.454 527.004ZM841.82 566.714L815.175 580.272L837.848 629.128L841.82 566.714ZM847.796 472.828L852.101 405.185L791.482 436.032L847.796 472.828ZM857.27 323.965L852.767 394.726L793.845 356.239L857.27 323.965ZM862.444 242.67L857.879 314.403L798.205 275.359L862.444 242.67ZM863.674 223.349L862.995 234.018L802.569 194.548L866.997 161.763L863.674 223.349ZM865.904 156.087L804.815 127.801L801.549 188.835L865.904 156.087ZM800.026 125.583L790.644 121.239L736.084 149.003L796.656 188.568L800.026 125.583ZM784.984 118.618L736.5 96.1689L733.886 144.62L784.984 118.618ZM731.712 93.952L709.781 83.7971L668.466 104.821L728.993 144.356L731.712 93.952ZM704.121 81.1762L668.193 64.5402L666.255 100.444L704.121 81.1762ZM663.405 62.3233L628.919 46.355L600.836 60.6452L661.362 100.18L663.405 62.3233ZM623.258 43.734L599.873 32.9058L598.623 56.27L623.258 43.734ZM860.426 238.196L799.9 198.661L795.997 270.981L860.426 238.196ZM851.702 399.887L791.176 360.352L787.274 432.672L851.702 399.887ZM665.797 108.933L661.892 181.323L726.327 148.47L665.797 108.933ZM791.104 270.717L795.007 198.396L730.578 231.181L791.104 270.717ZM788.438 274.831L727.907 235.293L723.967 307.702L788.438 274.831ZM790.646 279.209L726.211 312.062L786.741 351.599L790.646 279.209ZM795.539 279.473L791.634 351.863L856.066 319.076L795.539 279.473ZM664.1 185.701L724.631 225.239L728.571 152.829L664.1 185.701ZM793.99 192.682L733.461 153.146L729.525 225.5L793.99 192.682ZM783.508 511.565L845.942 479.795L787.259 441.451L783.508 511.565Z" fill="#ffffff"/>
<path fill-rule="evenodd" clip-rule="evenodd" d="M332.524 0L31.1795 649.476L0 153.97L332.524 0ZM310.907 34.9365L322.448 10.0686L278.414 30.458L279.753 55.2862L310.907 34.9365ZM307.007 43.3399L296.282 66.4511L282.422 59.3987L307.007 43.3399ZM294.216 70.9015L282.014 97.1947L280.211 63.7749L294.216 70.9015ZM277.149 107.678L266.415 130.808L214.307 104.293L274.833 64.7576L277.149 107.678ZM264.349 135.259L254.908 155.601L216.001 181.058L212.096 108.669L264.349 135.259ZM251.004 164.015L236.883 194.442L218.667 185.173L251.004 164.015ZM234.818 198.893L218.823 233.357L216.459 189.551L234.818 198.893ZM214.427 242.831L207.378 258.019L151.04 229.35L211.566 189.815L214.427 242.831ZM205.039 263.058L197.754 278.756L153.923 307.386L149.986 235.031L205.039 263.058ZM193.854 287.159L177.578 322.232L156.546 311.529L193.854 287.159ZM175.513 326.682L157.073 366.416L154.348 315.912L175.513 326.682ZM152.676 375.889L148.073 385.808L88.9282 355.711L149.454 316.176L152.676 375.889ZM146.008 390.258L143.578 395.494L90.4983 430.165L86.717 360.087L146.008 390.258ZM138.132 407.229L119.195 448.034L94.7247 435.582L138.132 407.229ZM117.13 452.484L93.9146 502.507L90.5139 438.94L117.13 452.484ZM86.4459 518.601L87.3299 516.696L26.0102 485.493L30.4455 555.18L86.4459 518.601ZM82.546 527.004L59.8904 575.822L30.8177 561.028L30.8033 560.803L82.546 527.004ZM31.1795 566.714L57.8251 580.272L35.1519 629.128L31.1795 566.714ZM25.2041 472.828L20.899 405.185L81.5182 436.032L25.2041 472.828ZM15.7297 323.965L20.2333 394.726L79.1547 356.239L15.7297 323.965ZM10.5556 242.67L15.1211 314.403L74.7947 275.359L10.5556 242.67ZM9.32593 223.349L10.005 234.018L70.4309 194.548L6.00282 161.763L9.32593 223.349ZM7.09606 156.087L68.1855 127.801L71.4507 188.835L7.09606 156.087ZM72.9742 125.583L82.356 121.239L136.916 149.003L76.3438 188.568L72.9742 125.583ZM88.0164 118.618L136.5 96.1689L139.114 144.62L88.0164 118.618ZM141.288 93.952L163.219 83.7971L204.533 104.821L144.007 144.356L141.288 93.952ZM168.879 81.1762L204.807 64.5402L206.745 100.444L168.879 81.1762ZM209.595 62.3233L244.081 46.355L272.164 60.6452L211.638 100.18L209.595 62.3233ZM249.742 43.734L273.127 32.9058L274.377 56.27L249.742 43.734ZM12.5743 238.196L73.1 198.661L77.0024 270.981L12.5743 238.196ZM21.2977 399.887L81.8239 360.352L85.7261 432.672L21.2977 399.887ZM207.203 108.933L211.108 181.323L146.673 148.47L207.203 108.933ZM81.8956 270.717L77.9932 198.396L142.422 231.181L81.8956 270.717ZM84.5615 274.831L145.093 235.293L149.033 307.702L84.5615 274.831ZM82.3539 279.209L146.788 312.062L86.259 351.599L82.3539 279.209ZM77.4607 279.473L81.3659 351.863L16.9339 319.076L77.4607 279.473ZM208.9 185.701L148.369 225.239L144.429 152.829L208.9 185.701ZM79.0103 192.682L139.539 153.146L143.475 225.5L79.0103 192.682ZM89.4919 511.565L27.0581 479.795L85.7409 441.451L89.4919 511.565Z" fill="#ffffff"/>
<defs fill="#ffffff">
<linearGradient id="paint0_linear_1023_666" x1="1078.44" y1="-165.759" x2="-200.921" y2="1165.34" gradientUnits="userSpaceOnUse" fill="#ffffff">
<stop fill="#ffffff"/>
<stop offset="1" fill="#ffffff"/>
</linearGradient>
<linearGradient id="paint1_linear_1023_666" x1="1078.44" y1="-165.759" x2="-200.921" y2="1165.34" gradientUnits="userSpaceOnUse" fill="#ffffff">
<stop fill="#ffffff"/>
<stop offset="1" fill="#ffffff"/>
</linearGradient>
<linearGradient id="paint2_linear_1023_666" x1="1078.44" y1="-165.759" x2="-200.921" y2="1165.34" gradientUnits="userSpaceOnUse" fill="#ffffff">
<stop fill="#ffffff"/>
<stop offset="1" fill="#ffffff"/>
</linearGradient>
<linearGradient id="paint3_linear_1023_666" x1="1078.44" y1="-165.759" x2="-200.921" y2="1165.34" gradientUnits="userSpaceOnUse" fill="#ffffff">
<stop fill="#ffffff"/>
<stop offset="1" fill="#ffffff"/>
</linearGradient>
<linearGradient id="paint4_linear_1023_666" x1="1078.44" y1="-165.759" x2="-200.921" y2="1165.34" gradientUnits="userSpaceOnUse" fill="#ffffff">
<stop fill="#ffffff"/>
<stop offset="1" fill="#ffffff"/>
</linearGradient>
<linearGradient id="paint5_linear_1023_666" x1="1078.44" y1="-165.759" x2="-200.921" y2="1165.34" gradientUnits="userSpaceOnUse" fill="#ffffff">
<stop fill="#ffffff"/>
<stop offset="1" fill="#ffffff"/>
</linearGradient>
</defs>
</svg>