<svg width="486" height="274" viewBox="0 0 486 274" fill="none" xmlns="http://www.w3.org/2000/svg">
<path d="M27.3333 29.3332C24.7604 29.3332 22.6666 31.4265 22.6666 33.9998C22.6666 36.5732 24.7604 38.6665 27.3333 38.6665C29.9062 38.6665 32 36.5732 32 33.9998C32 31.4265 29.9062 29.3332 27.3333 29.3332Z" fill="#FF454B"/>
<path d="M429.926 176C429.19 176 428.592 176.596 428.592 177.333V216H389.926C389.19 216 388.592 216.596 388.592 217.333C388.592 218.071 389.19 218.667 389.926 218.667H431.259V177.333C431.259 176.596 430.662 176 429.926 176ZM96 216H57.3333V177.333C57.3333 176.596 56.7358 176 56 176C55.2636 176 54.6666 176.596 54.6666 177.333V218.667H96C96.7358 218.667 97.3333 218.071 97.3333 217.333C97.3333 216.596 96.7358 216 96 216ZM388.592 55.9998C388.592 56.7372 389.19 57.3332 389.926 57.3332H428.592V95.9998C428.592 96.7372 429.19 97.3332 429.926 97.3332C430.662 97.3332 431.259 96.7372 431.259 95.9998V54.6665H389.926C389.19 54.6665 388.592 55.2625 388.592 55.9998ZM97.3333 55.9998C97.3333 56.7372 96.7358 57.3332 96 57.3332H57.3333V95.9998C57.3333 96.7372 56.7358 97.3332 56 97.3332C55.2636 97.3332 54.6666 96.7372 54.6666 95.9998V54.6665H96C96.7358 54.6665 97.3333 55.2625 97.3333 55.9998Z" fill="white"/>
<path d="M108.667 34.9999C108.667 34.6319 108.964 34.3333 109.332 34.3333C109.7 34.3333 109.999 34.6319 109.999 34.9999C109.999 35.3679 109.7 35.6666 109.332 35.6666C108.964 35.6666 108.667 35.3679 108.667 34.9999ZM108.667 32.3333C108.667 31.9653 108.964 31.6666 109.332 31.6666C109.7 31.6666 109.999 31.9653 109.999 32.3333C109.999 32.7013 109.7 32.9999 109.332 32.9999C108.964 32.9999 108.667 32.7013 108.667 32.3333ZM112.666 36.3333V30.9999C112.666 30.6333 112.966 30.3333 113.332 30.3333H114.666C115.034 30.3333 115.332 30.6333 115.332 30.9999V36.3333C115.332 36.6999 115.034 36.9999 114.666 36.9999H113.332C112.966 36.9999 112.666 36.6999 112.666 36.3333ZM116.666 36.3333V30.9999C116.666 29.8973 115.77 28.9999 114.666 28.9999H113.332C112.23 28.9999 111.332 29.8973 111.332 30.9999V36.3333C111.332 37.4359 112.23 38.3333 113.332 38.3333H114.666C115.77 38.3333 116.666 37.4359 116.666 36.3333ZM121.999 36.3333C121.999 36.6999 121.7 36.9999 121.332 36.9999H119.999C119.632 36.9999 119.332 36.6999 119.332 36.3333V30.9999C119.332 30.6333 119.632 30.3333 119.999 30.3333H121.332C121.7 30.3333 121.999 30.6333 121.999 30.9999V36.3333ZM121.332 28.9999H119.999C118.896 28.9999 117.999 29.8973 117.999 30.9999V36.3333C117.999 37.4359 118.896 38.3333 119.999 38.3333H121.332C122.436 38.3333 123.332 37.4359 123.332 36.3333V30.9999C123.332 29.8973 122.436 28.9999 121.332 28.9999ZM92.6666 34.9999C92.6666 34.6319 92.9645 34.3333 93.3333 34.3333C93.701 34.3333 93.9999 34.6319 93.9999 34.9999C93.9999 35.3679 93.701 35.6666 93.3333 35.6666C92.9645 35.6666 92.6666 35.3679 92.6666 34.9999ZM92.6666 32.3333C92.6666 31.9653 92.9645 31.6666 93.3333 31.6666C93.701 31.6666 93.9999 31.9653 93.9999 32.3333C93.9999 32.7013 93.701 32.9999 93.3333 32.9999C92.9645 32.9999 92.6666 32.7013 92.6666 32.3333ZM103.333 36.3333V30.9999C103.333 30.6333 103.632 30.3333 104 30.3333H105.333C105.701 30.3333 106 30.6333 106 30.9999V36.3333C106 36.6999 105.701 36.9999 105.333 36.9999H104C103.632 36.9999 103.333 36.6999 103.333 36.3333ZM107.333 36.3333V30.9999C107.333 29.8973 106.436 28.9999 105.333 28.9999H104C102.897 28.9999 102 29.8973 102 30.9999V36.3333C102 37.4359 102.897 38.3333 104 38.3333H105.333C106.436 38.3333 107.333 37.4359 107.333 36.3333ZM96.6666 36.3333V30.9999C96.6666 30.6333 96.965 30.3333 97.3333 30.3333H98.6666C99.0343 30.3333 99.3333 30.6333 99.3333 30.9999V36.3333C99.3333 36.6999 99.0343 36.9999 98.6666 36.9999H97.3333C96.965 36.9999 96.6666 36.6999 96.6666 36.3333ZM100.667 36.3333V30.9999C100.667 29.8973 99.7691 28.9999 98.6666 28.9999H97.3333C96.2302 28.9999 95.3333 29.8973 95.3333 30.9999V36.3333C95.3333 37.4359 96.2302 38.3333 97.3333 38.3333H98.6666C99.7691 38.3333 100.667 37.4359 100.667 36.3333ZM87.3333 30.9999C87.3333 30.6333 87.6317 30.3333 87.9999 30.3333H89.3333C89.701 30.3333 89.9999 30.6333 89.9999 30.9999V36.3333C89.9999 36.6999 89.701 36.9999 89.3333 36.9999H87.9999C87.6317 36.9999 87.3333 36.6999 87.3333 36.3333V30.9999ZM87.9999 38.3333H89.3333C90.4358 38.3333 91.3333 37.4359 91.3333 36.3333V30.9999C91.3333 29.8973 90.4358 28.9999 89.3333 28.9999H87.9999C86.8969 28.9999 85.9999 29.8973 85.9999 30.9999V36.3333C85.9999 37.4359 86.8969 38.3333 87.9999 38.3333ZM80.6666 30.9999C80.6666 30.6333 80.965 30.3333 81.3333 30.3333H82.6666C83.0343 30.3333 83.3333 30.6333 83.3333 30.9999V36.3333C83.3333 36.6999 83.0343 36.9999 82.6666 36.9999H81.3333C80.965 36.9999 80.6666 36.6999 80.6666 36.3333V30.9999ZM81.3333 38.3333H82.6666C83.7691 38.3333 84.6666 37.4359 84.6666 36.3333V30.9999C84.6666 29.8973 83.7691 28.9999 82.6666 28.9999H81.3333C80.2302 28.9999 79.3333 29.8973 79.3333 30.9999V36.3333C79.3333 37.4359 80.2302 38.3333 81.3333 38.3333Z" fill="white"/>
<path d="M243.534 246.729C243.294 246.325 242.632 246.325 242.391 246.729L240.391 250.062C240.267 250.268 240.264 250.525 240.383 250.733C240.5 250.943 240.722 251.072 240.963 251.072H244.963C245.203 251.072 245.425 250.943 245.543 250.733C245.662 250.525 245.658 250.268 245.534 250.062L243.534 246.729ZM303.63 235.072V243.072C303.63 243.44 303.331 243.738 302.963 243.738H242.963H182.963C182.594 243.738 182.297 243.44 182.297 243.072V235.072C182.297 234.703 182.594 234.405 182.963 234.405C183.331 234.405 183.63 234.703 183.63 235.072V242.405H186.297V239.072C186.297 238.703 186.594 238.405 186.963 238.405C187.331 238.405 187.63 238.703 187.63 239.072V242.405H190.297V239.072C190.297 238.703 190.594 238.405 190.963 238.405C191.331 238.405 191.63 238.703 191.63 239.072V242.405H194.297V239.072C194.297 238.703 194.594 238.405 194.963 238.405C195.331 238.405 195.63 238.703 195.63 239.072V242.405H198.297V239.072C198.297 238.703 198.594 238.405 198.963 238.405C199.331 238.405 199.63 238.703 199.63 239.072V242.405H202.297V235.072C202.297 234.703 202.594 234.405 202.963 234.405C203.331 234.405 203.63 234.703 203.63 235.072V242.405H206.297V239.072C206.297 238.703 206.594 238.405 206.963 238.405C207.331 238.405 207.63 238.703 207.63 239.072V242.405H210.297V239.072C210.297 238.703 210.594 238.405 210.963 238.405C211.331 238.405 211.63 238.703 211.63 239.072V242.405H214.297V239.072C214.297 238.703 214.594 238.405 214.963 238.405C215.331 238.405 215.63 238.703 215.63 239.072V242.405H218.297V239.072C218.297 238.703 218.594 238.405 218.963 238.405C219.331 238.405 219.63 238.703 219.63 239.072V242.405H222.297V235.072C222.297 234.703 222.594 234.405 222.963 234.405C223.331 234.405 223.63 234.703 223.63 235.072V242.405H226.297V239.072C226.297 238.703 226.594 238.405 226.963 238.405C227.331 238.405 227.63 238.703 227.63 239.072V242.405H230.297V239.072C230.297 238.703 230.594 238.405 230.963 238.405C231.331 238.405 231.63 238.703 231.63 239.072V242.405H234.297V239.072C234.297 238.703 234.594 238.405 234.963 238.405C235.331 238.405 235.63 238.703 235.63 239.072V242.405H238.297V239.072C238.297 238.703 238.594 238.405 238.963 238.405C239.331 238.405 239.63 238.703 239.63 239.072V242.405H242.297V235.072C242.297 234.703 242.594 234.405 242.963 234.405C243.331 234.405 243.63 234.703 243.63 235.072V242.405H246.297V239.072C246.297 238.703 246.594 238.405 246.963 238.405C247.331 238.405 247.63 238.703 247.63 239.072V242.405H250.297V239.072C250.297 238.703 250.594 238.405 250.963 238.405C251.331 238.405 251.63 238.703 251.63 239.072V242.405H254.297V239.072C254.297 238.703 254.594 238.405 254.963 238.405C255.331 238.405 255.63 238.703 255.63 239.072V242.405H258.297V239.072C258.297 238.703 258.594 238.405 258.963 238.405C259.331 238.405 259.63 238.703 259.63 239.072V242.405H262.297V235.072C262.297 234.703 262.594 234.405 262.963 234.405C263.331 234.405 263.63 234.703 263.63 235.072V242.405H266.297V239.072C266.297 238.703 266.594 238.405 266.963 238.405C267.331 238.405 267.63 238.703 267.63 239.072V242.405H270.297V239.072C270.297 238.703 270.594 238.405 270.963 238.405C271.331 238.405 271.63 238.703 271.63 239.072V242.405H274.297V239.072C274.297 238.703 274.594 238.405 274.963 238.405C275.331 238.405 275.63 238.703 275.63 239.072V242.405H278.297V239.072C278.297 238.703 278.594 238.405 278.963 238.405C279.331 238.405 279.63 238.703 279.63 239.072V242.405H282.297V235.072C282.297 234.703 282.594 234.405 282.963 234.405C283.331 234.405 283.63 234.703 283.63 235.072V242.405H286.297V239.072C286.297 238.703 286.594 238.405 286.963 238.405C287.331 238.405 287.63 238.703 287.63 239.072V242.405H290.297V239.072C290.297 238.703 290.594 238.405 290.963 238.405C291.331 238.405 291.63 238.703 291.63 239.072V242.405H294.297V239.072C294.297 238.703 294.594 238.405 294.963 238.405C295.331 238.405 295.63 238.703 295.63 239.072V242.405H298.297V239.072C298.297 238.703 298.594 238.405 298.963 238.405C299.331 238.405 299.63 238.703 299.63 239.072V242.405H302.297V235.072C302.297 234.703 302.594 234.405 302.963 234.405C303.331 234.405 303.63 234.703 303.63 235.072Z" fill="white"/>
<path d="M341.092 242.072H337.759V234.738C337.759 234.369 337.462 234.072 337.092 234.072C336.724 234.072 336.426 234.369 336.426 234.738V242.738C336.426 243.107 336.724 243.405 337.092 243.405H341.092C341.462 243.405 341.759 243.107 341.759 242.738C341.759 242.369 341.462 242.072 341.092 242.072ZM345.092 235.405C344.724 235.405 344.426 235.702 344.426 236.072V241.405C344.426 241.773 344.724 242.072 345.092 242.072C345.462 242.072 345.759 241.773 345.759 241.405V236.072C345.759 235.702 345.462 235.405 345.092 235.405ZM381.092 235.405C380.724 235.405 380.426 235.702 380.426 236.072V241.405C380.426 241.773 380.724 242.072 381.092 242.072C381.462 242.072 381.759 241.773 381.759 241.405V236.072C381.759 235.702 381.462 235.405 381.092 235.405ZM349.092 235.405C348.724 235.405 348.426 235.702 348.426 236.072V241.405C348.426 241.773 348.724 242.072 349.092 242.072C349.462 242.072 349.759 241.773 349.759 241.405V236.072C349.759 235.702 349.462 235.405 349.092 235.405ZM353.092 235.405C352.724 235.405 352.426 235.702 352.426 236.072V241.405C352.426 241.773 352.724 242.072 353.092 242.072C353.462 242.072 353.759 241.773 353.759 241.405V236.072C353.759 235.702 353.462 235.405 353.092 235.405ZM357.092 235.405C356.724 235.405 356.426 235.702 356.426 236.072V241.405C356.426 241.773 356.724 242.072 357.092 242.072C357.462 242.072 357.759 241.773 357.759 241.405V236.072C357.759 235.702 357.462 235.405 357.092 235.405ZM361.092 235.405C360.724 235.405 360.426 235.702 360.426 236.072V241.405C360.426 241.773 360.724 242.072 361.092 242.072C361.462 242.072 361.759 241.773 361.759 241.405V236.072C361.759 235.702 361.462 235.405 361.092 235.405ZM365.092 235.405C364.724 235.405 364.426 235.702 364.426 236.072V241.405C364.426 241.773 364.724 242.072 365.092 242.072C365.462 242.072 365.759 241.773 365.759 241.405V236.072C365.759 235.702 365.462 235.405 365.092 235.405ZM369.092 235.405C368.724 235.405 368.426 235.702 368.426 236.072V241.405C368.426 241.773 368.724 242.072 369.092 242.072C369.462 242.072 369.759 241.773 369.759 241.405V236.072C369.759 235.702 369.462 235.405 369.092 235.405ZM373.092 235.405C372.724 235.405 372.426 235.702 372.426 236.072V241.405C372.426 241.773 372.724 242.072 373.092 242.072C373.462 242.072 373.759 241.773 373.759 241.405V236.072C373.759 235.702 373.462 235.405 373.092 235.405ZM377.759 236.072V241.405C377.759 241.773 377.462 242.072 377.092 242.072C376.724 242.072 376.426 241.773 376.426 241.405V236.072C376.426 235.702 376.724 235.405 377.092 235.405C377.462 235.405 377.759 235.702 377.759 236.072Z" fill="white"/>
<path d="M413.926 236.072C413.926 235.704 413.627 235.405 413.259 235.405H411.259V238.072H413.259C413.627 238.072 413.926 237.772 413.926 237.405V236.072ZM415.259 236.072V237.405C415.259 238.508 414.362 239.405 413.259 239.405H412.202L415.063 242.266C415.324 242.528 415.324 242.949 415.063 243.209C414.934 243.34 414.763 243.405 414.592 243.405C414.422 243.405 414.251 243.34 414.12 243.209L411.259 240.348V242.738C411.259 243.107 410.96 243.405 410.592 243.405C410.223 243.405 409.926 243.107 409.926 242.738V238.738V234.738C409.926 234.369 410.223 234.072 410.592 234.072H413.259C414.362 234.072 415.259 234.969 415.259 236.072V236.072ZM418.592 235.405C418.223 235.405 417.926 235.702 417.926 236.072V241.405C417.926 241.773 418.223 242.072 418.592 242.072C418.96 242.072 419.259 241.773 419.259 241.405V236.072C419.259 235.702 418.96 235.405 418.592 235.405ZM422.592 235.405C422.223 235.405 421.926 235.702 421.926 236.072V241.405C421.926 241.773 422.223 242.072 422.592 242.072C422.96 242.072 423.259 241.773 423.259 241.405V236.072C423.259 235.702 422.96 235.405 422.592 235.405ZM426.592 235.405C426.223 235.405 425.926 235.702 425.926 236.072V241.405C425.926 241.773 426.223 242.072 426.592 242.072C426.96 242.072 427.259 241.773 427.259 241.405V236.072C427.259 235.702 426.96 235.405 426.592 235.405ZM430.592 235.405C430.223 235.405 429.926 235.702 429.926 236.072V241.405C429.926 241.773 430.223 242.072 430.592 242.072C430.96 242.072 431.259 241.773 431.259 241.405V236.072C431.259 235.702 430.96 235.405 430.592 235.405ZM434.592 235.405C434.223 235.405 433.926 235.702 433.926 236.072V241.405C433.926 241.773 434.223 242.072 434.592 242.072C434.96 242.072 435.259 241.773 435.259 241.405V236.072C435.259 235.702 434.96 235.405 434.592 235.405ZM439.259 236.072V241.405C439.259 241.773 438.96 242.072 438.592 242.072C438.223 242.072 437.926 241.773 437.926 241.405V236.072C437.926 235.702 438.223 235.405 438.592 235.405C438.96 235.405 439.259 235.702 439.259 236.072Z" fill="white"/>
<path d="M111.999 241.738C111.631 241.738 111.333 242.036 111.333 242.405C111.333 242.773 111.631 243.072 111.999 243.072C112.367 243.072 112.666 242.773 112.666 242.405C112.666 242.036 112.367 241.738 111.999 241.738V241.738ZM118.666 235.072C119.035 235.072 119.333 234.773 119.333 234.405C119.333 234.036 119.035 233.738 118.666 233.738H114.666C114.298 233.738 113.999 234.036 113.999 234.405V238.405C113.999 238.773 114.298 239.072 114.666 239.072H117.333C117.701 239.072 117.999 239.371 117.999 239.738V241.072C117.999 241.438 117.701 241.738 117.333 241.738H114.666C114.298 241.738 113.999 242.036 113.999 242.405C113.999 242.773 114.298 243.072 114.666 243.072H117.333C118.437 243.072 119.333 242.174 119.333 241.072V239.738C119.333 238.636 118.437 237.738 117.333 237.738H115.333V235.072H118.666ZM108 233.738H105.333C104.965 233.738 104.667 234.036 104.667 234.405C104.667 234.773 104.965 235.072 105.333 235.072H108C108.368 235.072 108.667 235.371 108.667 235.738V237.072C108.667 237.438 108.368 237.738 108 237.738H106.667C106.298 237.738 106 238.036 106 238.405C106 238.773 106.298 239.072 106.667 239.072H108C108.368 239.072 108.667 239.371 108.667 239.738V241.072C108.667 241.438 108.368 241.738 108 241.738H105.333C104.965 241.738 104.667 242.036 104.667 242.405C104.667 242.773 104.965 243.072 105.333 243.072H108C109.103 243.072 109.999 242.174 109.999 241.072V239.738C109.999 239.226 109.806 238.759 109.49 238.405C109.806 238.05 109.999 237.584 109.999 237.072V235.738C109.999 234.636 109.103 233.738 108 233.738ZM103.333 234.405C103.333 234.773 103.035 235.072 102.667 235.072H99.3333V237.738H101.333C101.702 237.738 102 238.036 102 238.405C102 238.773 101.702 239.072 101.333 239.072H99.3333V242.405C99.3333 242.773 99.0349 243.072 98.6667 243.072C98.2979 243.072 98 242.773 98 242.405V234.405C98 234.036 98.2979 233.738 98.6667 233.738H102.667C103.035 233.738 103.333 234.036 103.333 234.405Z" fill="white"/>
<path d="M218.963 136.667C218.963 136.299 219.26 136 219.63 136H240.296V115.333C240.296 114.965 240.594 114.667 240.963 114.667C241.331 114.667 241.63 114.965 241.63 115.333V136H262.296C262.664 136 262.963 136.299 262.963 136.667C262.963 137.035 262.664 137.333 262.296 137.333H241.63V158C241.63 158.368 241.331 158.667 240.963 158.667C240.594 158.667 240.296 158.368 240.296 158V137.333H219.63C219.26 137.333 218.963 137.035 218.963 136.667Z" fill="white"/>
<path d="M70 241.405C70 241.772 69.7011 242.072 69.3333 242.072H68C67.6317 242.072 67.3333 241.772 67.3333 241.405V236.072C67.3333 235.704 67.6317 235.405 68 235.405H69.3333C69.7011 235.405 70 235.704 70 236.072V241.405ZM69.3333 234.072H68C66.8969 234.072 66 234.969 66 236.072V241.405C66 242.508 66.8969 243.405 68 243.405H69.3333C70.4359 243.405 71.3333 242.508 71.3333 241.405V236.072C71.3333 234.969 70.4359 234.072 69.3333 234.072ZM62.6667 241.405C62.6667 241.772 62.3677 242.072 62 242.072H60.6667C60.2984 242.072 60 241.772 60 241.405V236.072C60 235.704 60.2984 235.405 60.6667 235.405H62C62.3677 235.405 62.6667 235.704 62.6667 236.072V241.405ZM62 234.072H60.6667C59.5636 234.072 58.6667 234.969 58.6667 236.072V241.405C58.6667 242.508 59.5636 243.405 60.6667 243.405H62C63.1025 243.405 64 242.508 64 241.405V236.072C64 234.969 63.1025 234.072 62 234.072ZM56.6667 234.738V242.738C56.6667 243.107 56.3683 243.405 56 243.405C55.6312 243.405 55.3333 243.107 55.3333 242.738V236.348L53.8047 237.876C53.5443 238.137 53.1224 238.137 52.862 237.876C52.6016 237.616 52.6016 237.195 52.862 236.933L55.5287 234.266C55.7197 234.076 56.0063 234.02 56.2552 234.123C56.5041 234.225 56.6667 234.469 56.6667 234.738V234.738ZM35.3333 234.738V242.738C35.3333 243.107 35.0349 243.405 34.6667 243.405C34.2979 243.405 34 243.107 34 242.738V234.738C34 234.369 34.2979 234.072 34.6667 234.072C35.0349 234.072 35.3333 234.369 35.3333 234.738ZM38.6667 236.072V237.405C38.6667 237.772 38.9651 238.072 39.3333 238.072H40.6667C41.7692 238.072 42.6667 238.969 42.6667 240.072V241.405C42.6667 242.508 41.7692 243.405 40.6667 243.405H39.3333C38.2303 243.405 37.3333 242.508 37.3333 241.405C37.3333 241.036 37.6312 240.738 38 240.738C38.3683 240.738 38.6667 241.036 38.6667 241.405C38.6667 241.772 38.9651 242.072 39.3333 242.072H40.6667C41.0344 242.072 41.3333 241.772 41.3333 241.405V240.072C41.3333 239.704 41.0344 239.405 40.6667 239.405H39.3333C38.2303 239.405 37.3333 238.508 37.3333 237.405V236.072C37.3333 234.969 38.2303 234.072 39.3333 234.072H40.6667C41.7692 234.072 42.6667 234.969 42.6667 236.072C42.6667 236.44 42.3683 236.738 42 236.738C41.6312 236.738 41.3333 236.44 41.3333 236.072C41.3333 235.704 41.0344 235.405 40.6667 235.405H39.3333C38.9651 235.405 38.6667 235.704 38.6667 236.072ZM48.6667 241.405C48.6667 241.772 48.3677 242.072 48 242.072H46.6667C46.2984 242.072 46 241.772 46 241.405V236.072C46 235.704 46.2984 235.405 46.6667 235.405H48C48.3677 235.405 48.6667 235.704 48.6667 236.072V241.405ZM48 234.072H46.6667C45.5636 234.072 44.6667 234.969 44.6667 236.072V241.405C44.6667 242.508 45.5636 243.405 46.6667 243.405H48C49.1025 243.405 50 242.508 50 241.405V236.072C50 234.969 49.1025 234.072 48 234.072Z" fill="white"/>
<path d="M359.759 32.3333C359.759 32.6999 359.461 32.9999 359.093 32.9999H357.093V30.3333H359.093C359.461 30.3333 359.759 30.6333 359.759 30.9999V32.3333ZM361.093 32.3333V30.9999C361.093 29.8973 360.195 28.9999 359.093 28.9999H356.426C356.058 28.9999 355.759 29.2986 355.759 29.6666V37.6666C355.759 38.0346 356.058 38.3333 356.426 38.3333C356.795 38.3333 357.093 38.0346 357.093 37.6666V34.3333H359.093C360.195 34.3333 361.093 33.4359 361.093 32.3333ZM354.426 29.6666C354.426 30.0346 354.129 30.3333 353.759 30.3333H350.426V32.9999H352.426C352.795 32.9999 353.093 33.2986 353.093 33.6666C353.093 34.0346 352.795 34.3333 352.426 34.3333H350.426V37.6666C350.426 38.0346 350.129 38.3333 349.759 38.3333C349.391 38.3333 349.093 38.0346 349.093 37.6666V29.6666C349.093 29.2986 349.391 28.9999 349.759 28.9999H353.759C354.129 28.9999 354.426 29.2986 354.426 29.6666ZM363.759 30.9999V32.3333C363.759 32.6999 364.058 32.9999 364.426 32.9999H365.759C366.862 32.9999 367.759 33.8973 367.759 34.9999V36.3333C367.759 37.4359 366.862 38.3333 365.759 38.3333H364.426C363.323 38.3333 362.426 37.4359 362.426 36.3333C362.426 35.9653 362.725 35.6666 363.093 35.6666C363.462 35.6666 363.759 35.9653 363.759 36.3333C363.759 36.6999 364.058 36.9999 364.426 36.9999H365.759C366.127 36.9999 366.426 36.6999 366.426 36.3333V34.9999C366.426 34.6333 366.127 34.3333 365.759 34.3333H364.426C363.323 34.3333 362.426 33.4359 362.426 32.3333V30.9999C362.426 29.8973 363.323 28.9999 364.426 28.9999H365.759C366.862 28.9999 367.759 29.8973 367.759 30.9999C367.759 31.3679 367.462 31.6666 367.093 31.6666C366.725 31.6666 366.426 31.3679 366.426 30.9999C366.426 30.6333 366.127 30.3333 365.759 30.3333H364.426C364.058 30.3333 363.759 30.6333 363.759 30.9999ZM373.759 34.3333C374.127 34.3333 374.426 34.6333 374.426 34.9999V36.3333C374.426 36.6999 374.127 36.9999 373.759 36.9999H372.426C372.058 36.9999 371.759 36.6999 371.759 36.3333V34.3333H373.759ZM372.426 30.3333H375.093C375.462 30.3333 375.759 30.0346 375.759 29.6666C375.759 29.2986 375.462 28.9999 375.093 28.9999H372.426C371.323 28.9999 370.426 29.8973 370.426 30.9999V36.3333C370.426 37.4359 371.323 38.3333 372.426 38.3333H373.759C374.862 38.3333 375.759 37.4359 375.759 36.3333V34.9999C375.759 33.8973 374.862 32.9999 373.759 32.9999H371.759V30.9999C371.759 30.6333 372.058 30.3333 372.426 30.3333ZM381.093 36.3333C381.093 36.6999 380.794 36.9999 380.426 36.9999H379.093C378.725 36.9999 378.426 36.6999 378.426 36.3333V30.9999C378.426 30.6333 378.725 30.3333 379.093 30.3333H380.426C380.794 30.3333 381.093 30.6333 381.093 30.9999V36.3333ZM380.426 28.9999H379.093C377.99 28.9999 377.093 29.8973 377.093 30.9999V36.3333C377.093 37.4359 377.99 38.3333 379.093 38.3333H380.426C381.529 38.3333 382.426 37.4359 382.426 36.3333V30.9999C382.426 29.8973 381.529 28.9999 380.426 28.9999Z" fill="white"/>
<path d="M42.6667 37.6667C42.6667 38.0347 42.9645 38.3333 43.3333 38.3333C43.7016 38.3333 44 38.0347 44 37.6667V35.276L46.862 38.1387C46.9921 38.268 47.1625 38.3333 47.3333 38.3333C47.5036 38.3333 47.6745 38.268 47.8047 38.1387C48.0651 37.8773 48.0651 37.456 47.8047 37.1947L44.9427 34.3333H46C47.1025 34.3333 48 33.436 48 32.3333V31C48 29.8973 47.1025 29 46 29H43.3333C42.9645 29 42.6667 29.2987 42.6667 29.6667V33.6667V37.6667ZM49.3333 37.6667C49.3333 38.0347 49.6312 38.3333 50 38.3333H54C54.3683 38.3333 54.6667 38.0347 54.6667 37.6667C54.6667 37.2987 54.3683 37 54 37H50.6667V34.3333H52.6667C53.0349 34.3333 53.3333 34.0347 53.3333 33.6667C53.3333 33.2987 53.0349 33 52.6667 33H50.6667V30.3333H54C54.3683 30.3333 54.6667 30.0347 54.6667 29.6667C54.6667 29.2987 54.3683 29 54 29H50C49.6312 29 49.3333 29.2987 49.3333 29.6667V37.6667ZM56 36.3333C56 37.436 56.8969 38.3333 58 38.3333H60.6667C61.0349 38.3333 61.3333 38.0347 61.3333 37.6667C61.3333 37.2987 61.0349 37 60.6667 37H58C57.6317 37 57.3333 36.7 57.3333 36.3333V31C57.3333 30.6333 57.6317 30.3333 58 30.3333H60.6667C61.0349 30.3333 61.3333 30.0347 61.3333 29.6667C61.3333 29.2987 61.0349 29 60.6667 29H58C56.8969 29 56 29.8973 56 31V36.3333ZM39.3333 42C37.4953 42 36 40.5053 36 38.6667V28.6667C36 26.828 37.4953 25.3333 39.3333 25.3333H64.6667C66.5041 25.3333 68 26.828 68 28.6667V38.6667C68 40.5053 66.5041 42 64.6667 42H39.3333ZM46 33H44V30.3333H46C46.3677 30.3333 46.6667 30.6333 46.6667 31V32.3333C46.6667 32.7 46.3677 33 46 33Z" fill="white"/>
<path d="M455.814 37.1946C456.074 37.4559 456.074 37.8773 455.814 38.1386C455.683 38.2679 455.513 38.3333 455.342 38.3333C455.171 38.3333 455.001 38.2679 454.871 38.1386L452.009 35.2759V37.6666C452.009 38.0346 451.711 38.3333 451.342 38.3333C450.974 38.3333 450.675 38.0346 450.675 37.6666V29.6666C450.675 29.2986 450.974 28.9999 451.342 28.9999C451.711 28.9999 452.009 29.2986 452.009 29.6666V32.0573L454.871 29.1946C455.131 28.9346 455.554 28.9346 455.814 29.1946C456.074 29.4559 456.074 29.8773 455.814 30.1386L452.285 33.6666L455.814 37.1946ZM448.009 32.3333C448.009 32.6999 447.71 32.9999 447.342 32.9999H446.009C445.641 32.9999 445.342 32.6999 445.342 32.3333V30.9999C445.342 30.6333 445.641 30.3333 446.009 30.3333H447.342C447.71 30.3333 448.009 30.6333 448.009 30.9999V32.3333ZM448.009 36.3333C448.009 36.6999 447.71 36.9999 447.342 36.9999H446.009C445.641 36.9999 445.342 36.6999 445.342 36.3333V34.9999C445.342 34.6333 445.641 34.3333 446.009 34.3333H447.342C447.71 34.3333 448.009 34.6333 448.009 34.9999V36.3333ZM447.342 28.9999H446.009C444.906 28.9999 444.009 29.8973 444.009 30.9999V32.3333C444.009 32.8479 444.21 33.3119 444.529 33.6666C444.21 34.0213 444.009 34.4853 444.009 34.9999V36.3333C444.009 37.4359 444.906 38.3333 446.009 38.3333H447.342C448.445 38.3333 449.342 37.4359 449.342 36.3333V34.9999C449.342 34.4853 449.142 34.0213 448.822 33.6666C449.142 33.3119 449.342 32.8479 449.342 32.3333V30.9999C449.342 29.8973 448.445 28.9999 447.342 28.9999ZM413.175 30.3333H415.175C415.543 30.3333 415.842 30.6333 415.842 30.9999V36.3333C415.842 36.6999 415.543 36.9999 415.175 36.9999H413.175V30.3333ZM412.509 38.3333H415.175C416.278 38.3333 417.175 37.4359 417.175 36.3333V30.9999C417.175 29.8973 416.278 28.9999 415.175 28.9999H412.509C412.141 28.9999 411.842 29.2986 411.842 29.6666V37.6666C411.842 38.0346 412.141 38.3333 412.509 38.3333ZM405.175 37.6666V29.6666C405.175 29.2986 405.474 28.9999 405.842 28.9999C406.211 28.9999 406.509 29.2986 406.509 29.6666V32.9999H409.175V29.6666C409.175 29.2986 409.474 28.9999 409.842 28.9999C410.211 28.9999 410.509 29.2986 410.509 29.6666V37.6666C410.509 38.0346 410.211 38.3333 409.842 38.3333C409.474 38.3333 409.175 38.0346 409.175 37.6666V34.3333H406.509V37.6666C406.509 38.0346 406.211 38.3333 405.842 38.3333C405.474 38.3333 405.175 38.0346 405.175 37.6666ZM436.397 37.1946C436.658 37.4559 436.658 37.8773 436.397 38.1386C436.267 38.2679 436.097 38.3333 435.926 38.3333C435.755 38.3333 435.585 38.2679 435.454 38.1386L432.593 35.2759V37.6666C432.593 38.0346 432.294 38.3333 431.926 38.3333C431.557 38.3333 431.259 38.0346 431.259 37.6666V29.6666C431.259 29.2986 431.557 28.9999 431.926 28.9999C432.294 28.9999 432.593 29.2986 432.593 29.6666V32.0573L435.454 29.1946C435.715 28.9346 436.137 28.9346 436.397 29.1946C436.658 29.4559 436.658 29.8773 436.397 30.1386L432.869 33.6666L436.397 37.1946ZM429.926 37.6666C429.926 38.0346 429.627 38.3333 429.259 38.3333C428.89 38.3333 428.593 38.0346 428.593 37.6666V34.3333H425.259C424.89 34.3333 424.593 34.0346 424.593 33.6666V29.6666C424.593 29.2986 424.89 28.9999 425.259 28.9999C425.627 28.9999 425.926 29.2986 425.926 29.6666V32.9999H428.593V29.6666C428.593 29.2986 428.89 28.9999 429.259 28.9999C429.627 28.9999 429.926 29.2986 429.926 29.6666V37.6666ZM437.259 24.9999H423.926C422.087 24.9999 420.593 26.4946 420.593 28.3333V38.9999C420.593 40.8386 422.087 42.3333 423.926 42.3333H437.259C439.097 42.3333 440.593 40.8386 440.593 38.9999V28.3333C440.593 26.4946 439.097 24.9999 437.259 24.9999Z" fill="white"/>
</svg>
